<?xml version="1.0" encoding="UTF-8"?><svg id="Objects" xmlns="http://www.w3.org/2000/svg" viewBox="0 0 1796.59 1410"><defs><style>.cls-1{fill:#ffce00;}.cls-2{fill:#fff;}.cls-3{fill:#edaf00;}.cls-4{fill:#e8e8e8;}</style></defs><path class="cls-3" d="M4.19,1303.16c-2.71-7.93-4.19-16.44-4.19-25.29V77.9C0,34.87,34.87,0,77.9,0h525.45c25.5,0,50.12,9.39,69.15,26.36l141.77,126.48c19.03,16.97,43.64,26.36,69.15,26.36h591.5c43.03,0,77.9,34.87,77.9,77.9v101.57L4.19,1303.16Z"/><path class="cls-4" d="M131.3,880V308.02c0-17.26,13.99-31.24,31.24-31.24h1246.04c17.26,0,31.24,13.99,31.24,31.24v493.05l-1308.52,78.93Z"/><path class="cls-2" d="M159.3,916V344.02c0-17.26,13.99-31.24,31.24-31.24h1246.04c17.26,0,31.24,13.99,31.24,31.24v493.05l-1308.52,78.93Z"/><path class="cls-1" d="M1793.7,457.43l-248.31,893.4c-9.72,34.97-41.56,59.17-77.86,59.17H80.86c-53.33,0-92.03-50.75-77.93-102.18l207.05-754.96c9.28-33.84,40.04-57.3,75.13-57.3h665.04c18.54,0,36.74-4.96,52.72-14.37l183.59-108.15c15.98-9.41,34.18-14.37,52.72-14.37h479.47c51.52,0,88.85,49.12,75.06,98.76Z"/></svg>