<?xml version="1.0" encoding="UTF-8"?><svg id="Livello_1" xmlns="http://www.w3.org/2000/svg" viewBox="0 0 1799.22 237.53"><defs><style>.cls-1{fill:#111110;stroke-width:0px;}</style></defs><path class="cls-1" d="M858.48,40.53c-19.16,0,1.93.13-9.39.13-15.44,0-26.11,12.6-26.11,19.94v13.24c0,12.35,10.41,18.65,31.38,18.65h48.22c27,0,46.55,5.02,58.77,14.92,12.21,10.03,18.26,25.21,18.26,45.65v15.69c0,28.3-5.27,45.39-20.45,56.33-13.63,9.77-33.43,11.7-46.55,11.7-11.96,0-18.13.9-35.37.65-20.83-.13-71.88.38-111.1-.13v-37.93c40.25,0,97.86.13,113.03.13,27.26,0,43.59.9,43.59-24.56v-15.3c0-7.71-2.31-13.76-6.82-17.88-4.5-4.11-12.6-6.17-24.31-6.17h-47.45c-52.08,0-78.19-20.7-78.19-62.11v-17.49c0-20.7,8.61-35.88,25.98-45.65C809.23.54,810,.16,847.55.16h83.84l-.13-.13h48.48v40h-24.43c-39.48.13-86.93.51-96.83.51Z"/><path class="cls-1" d="M529.3,155.55l-30.09,81.53h56.2l27.39-81.53h-53.5ZM712.3,155.55h-55.55l27.26,81.53h57.61l-29.32-81.53ZM656.23.08h-69.31l-42.44,114.84h52.08l22.63-67.38h1.41l22.63,67.38h54.65L656.23.08Z"/><polygon class="cls-1" points="748.95 155.55 582.8 155.55 596.43 115.05 734.29 115.05 748.95 155.55"/><path class="cls-1" d="M1579.58,155.99l-30.09,81.53h56.2l27.39-81.53h-53.5ZM1762.57,155.99h-55.55l27.26,81.53h57.61l-29.32-81.53ZM1706.5.52h-69.31l-42.44,114.84h52.08l22.63-67.38h1.41l22.63,67.38h54.65L1706.5.52Z"/><polygon class="cls-1" points="1799.22 155.99 1633.07 155.99 1646.71 115.48 1784.56 115.48 1799.22 155.99"/><path class="cls-1" d="M0,0h60.69v237.51H0V0Z"/><path class="cls-1" d="M1074.63,40.63h-77.8V0h215.9v40.62h-77.41v196.89h-60.69V40.63Z"/><path class="cls-1" d="M1229.8,0h113.59c33.71,0,58.09,3.84,73.13,11.53,15.04,7.68,22.56,20.56,22.56,38.61v41.72c0,13.91-5.25,24.83-15.76,32.75-10.5,7.93-24.45,12.99-41.82,15.19l73.13,97.71h-70.02l-66.13-93.32h-28.01v93.32h-60.69V0ZM1342.62,106.5c14.26,0,23.99-1.77,29.18-5.31,5.19-3.53,7.78-10.43,7.78-20.68v-16.83c0-8.78-2.79-14.82-8.36-18.11-5.58-3.29-15.11-4.94-28.59-4.94h-52.13v65.87h52.13Z"/><path class="cls-1" d="M1471.73,0h60.69v237.51h-60.69V0Z"/><path class="cls-1" d="M470.09,28.54c-8.03-10.48-20.6-17.84-37.72-22.14-17.14-4.26-40.49-6.4-70.06-6.4h-100.95v162.11l-6.39-8.46L139.21,0h-61.45v237.53h54.07V72.85l122.15,164.68h108.74c30.34,0,54.07-2.02,71.19-6.03,17.12-4.01,29.43-10.99,36.95-20.89,7.52-9.86,11.28-23.85,11.28-41.88v-96.65c0-18.49-4.02-33.03-12.04-43.54ZM421.48,168.72c0,8.29-1.92,14.4-5.65,18.3-3.75,3.89-9.86,6.54-18.3,7.86-8.41,1.35-20.96,2.02-37.55,2.02h-44.33V40.61h46.28c20.75,0,35.87,2.28,45.32,6.8,9.47,4.52,14.23,12.38,14.23,23.58v97.73Z"/></svg>