<?xml version="1.0" encoding="UTF-8"?><svg id="Livello_2" xmlns="http://www.w3.org/2000/svg" viewBox="0 0 2562.42 188.18"><defs><style>.cls-1{fill:#f6f6f6;}.cls-2{fill:#2a3277;}.cls-3{fill:#fff;}.cls-4{fill:#feca24;}</style></defs><path class="cls-1" d="M451.1,57v76.3c0,14.2-2.8,25.3-8.4,33.1-5.6,7.8-14.8,13.3-27.5,16.5s-30.3,4.8-52.9,4.8h-88.6v-68.8l43.6-66.5v103.2h43c12.3,0,21.7-.5,27.9-1.6,6.3-1.1,10.8-3.1,13.6-6.2,2.8-3.1,4.2-7.9,4.2-14.5V56.1c0-8.9-3.5-15.1-10.5-18.7-6.6-3.4-16.9-5.1-30.8-5.3h-.8l-71.2.1-48.8,79.7v75.8h-45.1v-75.2l-48.8-80.7c-31.3.1-68.8.4-76.7.4-15.2,0,1.5.1-7.4.1-12.2,0-20.7,10-20.7,15.8v10.5c0,9.8,8.3,14.8,24.9,14.8h38.1c21.4,0,36.9,3.9,46.5,11.9,9.6,7.9,14.5,19.9,14.5,36.1v12.4c0,22.4-4.2,35.9-16.2,44.6-10.8,7.7-26.4,9.2-36.9,9.2-9.5,0-14.3.7-28,.5-16.5-.1-56.9.3-88-.1v-30c31.9,0,77.5.1,89.5.1,21.6,0,34.5.8,34.5-19.4v-12.1c0-6.2-1.8-10.9-5.4-14.2-3.6-3.3-10-4.9-19.2-4.9h-37.6C20.6,107.5,0,91.1,0,58.3v-13.9C0,28,6.8,16,20.5,8.3,34.2.6,34.8.3,64.5.3h66.4l-.1-.1h51.2l39.6,73.4L260.9.2h101.2c6.2,0,12,.1,17.5.4,13.9.7,25.4,2.2,34.6,4.6,12.7,3.4,22.1,9.2,28,17.5,5.9,8.2,8.9,19.6,8.9,34.3Z"/><polygon class="cls-1" points="573.8 150.1 573.8 187.7 463.7 187.7 463.7 123.1 501.5 123.1 501.5 150.1 573.8 150.1"/><path class="cls-1" d="M598.1,123.1l-23.9,64.5h44.5l21.6-64.5h-42.2ZM742.9,123.1h-44l21.6,64.5h45.7l-23.3-64.5ZM698.5,0h-54.9l-33.6,91h41.2l17.9-53.4h1.1l17.9,53.4h43.3L698.5,0Z"/><polygon class="cls-1" points="574.2 0 574.2 37.6 501.5 37.6 501.5 91 463.7 91 463.7 0 574.2 0"/><polygon class="cls-4" points="501.5 123.1 501.5 91 573.9 91 573.9 48.9 598.2 123.1 501.5 123.1"/><polygon class="cls-4" points="772 123.1 640.4 123.1 651.2 91 760.4 91 772 123.1"/><rect class="cls-2" x="818.22" width="1744.21" height="188.18"/><path class="cls-3" d="M857.62,52.68h20.16l40.07,56.54v-56.54h17.74v82.82h-20.16l-40.07-57.43v57.43h-17.74V52.68Z"/><path class="cls-3" d="M953.46,52.68h63.17v14.16h-43.26v19.02h39.05v14.17h-39.05v21.31h44.54v14.17h-64.45V52.68Z"/><path class="cls-3" d="M1023.39,52.68h20.67l16.08,60.49,16.08-60.49h18.5l17.36,60.49,14.8-60.49h20.16l-26.54,82.82h-19.65l-15.82-60.11-16.34,60.11h-19.65l-25.65-82.82Z"/><path class="cls-3" d="M1154.45,134.48v-15.19c14.46,2.21,24.33,3.32,29.61,3.32,11.06,0,16.59-2.85,16.59-8.55v-5.36c0-2.72-.79-4.81-2.36-6.25-1.58-1.45-4.4-2.17-8.49-2.17h-9.7c-18.21,0-27.31-7.23-27.31-21.7v-6.13c0-7.23,3.02-12.55,9.06-15.95,6.04-3.4,15.61-5.1,28.71-5.1,6.81,0,15.44.55,25.91,1.66v14.8c-12.85-1.53-21.7-2.3-26.54-2.3-6.72,0-11.23.55-13.53,1.66-2.47,1.19-3.7,3.06-3.7,5.62v5.87c0,4.34,3.66,6.51,10.97,6.51h9.95c9.44,0,16.29,1.75,20.55,5.23,4.25,3.49,6.38,8.81,6.38,15.95v5.49c0,9.87-3.53,16.55-10.59,20.04-3.4,1.79-7.17,3.04-11.29,3.77-4.13.72-9.08,1.08-14.87,1.08-7.91,0-17.7-.77-29.35-2.3Z"/><path class="cls-3" d="M1269.5,132.63c-5.57-2.76-8.36-7-8.36-12.7v-15.44c0-6.81,5.53-11.91,16.59-15.31l-3.83-4.08c-2.64-2.89-3.96-5.95-3.96-9.19v-10.08c0-4.76,2.13-8.36,6.38-10.78,4.25-2.42,10.29-3.64,18.12-3.64,5.27,0,12.33.72,21.18,2.17v12.63c-7.74-1.79-14.55-2.68-20.42-2.68-4.85,0-7.27,1.32-7.27,3.96v4.98c0,1.87.38,3.28,1.15,4.21l26.8,29.48v-19.01h16.85v20.55c0,4.77-1.53,8.76-4.59,12l2.42,2.68c.68.68,1.45,1.02,2.3,1.02h5.62v12.12h-11.74c-4.08,0-6.98-.89-8.68-2.68l-.89-.89c-6.3,3.23-14.51,4.85-24.63,4.85s-17.46-1.38-23.04-4.15ZM1308.74,122.87l-24.25-26.29c-2.81,1.02-4.21,2.64-4.21,4.85v15.57c0,2.47,1.02,4.34,3.06,5.62s5.87,1.91,11.49,1.91c6.81,0,11.44-.55,13.91-1.66Z"/><path class="cls-3" d="M1403.37,136.27c-2.93-.34-6.15-.98-9.64-1.91-3.91-1.02-7.15-2.36-9.7-4.02-2.55-1.66-4.68-3.98-6.38-6.96-1.79-2.98-2.68-6.51-2.68-10.59v-36.37c0-16.67,12.8-25.01,38.41-25.01,6.55,0,15.31.94,26.29,2.81v14.93c-9.87-2.38-18.55-3.57-26.03-3.57-3.15,0-5.6.08-7.34.25-1.75.17-3.55.6-5.42,1.28-4,1.36-6,4.38-6,9.06v35.22c0,7.49,6.85,11.23,20.55,11.23,5.87,0,14.12-1.23,24.76-3.7v15.06c-9.1,1.87-18.04,2.81-26.8,2.81-3.74,0-7.08-.17-10.02-.51Z"/><path class="cls-3" d="M1477.64,135.89c-3.87-.59-7.89-1.62-12.06-3.06-4.51-1.53-8.04-4.02-10.59-7.47-2.55-3.45-3.83-7.64-3.83-12.57v-36.24c0-4.08.91-7.74,2.74-10.97,1.83-3.23,4.19-5.79,7.08-7.66,2.55-1.62,5.7-2.98,9.44-4.08,3.74-1.11,7.23-1.79,10.46-2.04,2.98-.25,6.13-.38,9.44-.38,3.91,0,7.32.15,10.21.45,2.89.3,6.13.91,9.7,1.85,4.08,1.19,7.44,2.64,10.08,4.34,2.64,1.7,4.85,4.08,6.64,7.15,1.87,3.15,2.81,6.94,2.81,11.36v36.24c0,4.59-1.21,8.55-3.64,11.87s-5.76,5.83-10.02,7.53c-7.66,3.06-16.25,4.59-25.78,4.59-4.59,0-8.83-.3-12.7-.89ZM1497.68,122.29c1.91-.21,3.89-.62,5.93-1.21,2.04-.59,3.59-1.6,4.66-3,1.06-1.4,1.6-3.17,1.6-5.3v-36.37c0-3.91-1.58-6.7-4.72-8.36-3.15-1.66-8.04-2.49-14.68-2.49s-11.53.81-14.68,2.42c-3.15,1.62-4.72,4.42-4.72,8.42v36.37c0,2.13.55,3.89,1.66,5.3,1.11,1.4,2.72,2.4,4.85,3,2.04.6,4.02,1,5.93,1.21,1.92.21,4.28.32,7.08.32s5.17-.11,7.08-.32Z"/><path class="cls-3" d="M1545.85,52.68h28.33l20.42,59.21,20.16-59.21h26.67v82.82h-17.99v-61.26h-.38l-20.93,61.26h-15.95l-21.57-61.26h-.51v61.26h-18.25V52.68Z"/><path class="cls-3" d="M1659.31,52.68h28.33l20.42,59.21,20.16-59.21h26.67v82.82h-17.99v-61.26h-.38l-20.93,61.26h-15.95l-21.57-61.26h-.51v61.26h-18.25V52.68Z"/><path class="cls-3" d="M1772.5,112.79v-60.11h19.91v60.11c0,3.74,1.21,6.32,3.64,7.72,2.42,1.4,6.61,2.11,12.57,2.11s9.97-.7,12.31-2.11c2.34-1.4,3.51-3.98,3.51-7.72v-60.11h19.91v60.11c0,16-12,23.99-35.99,23.99s-35.86-8-35.86-23.99Z"/><path class="cls-3" d="M1861.96,52.68h20.17l40.07,56.54v-56.54h17.74v82.82h-20.17l-40.07-57.43v57.43h-17.74V52.68Z"/><path class="cls-3" d="M1957.8,52.68h19.91v82.82h-19.91V52.68Z"/><path class="cls-3" d="M2022.18,136.27c-2.93-.34-6.15-.98-9.63-1.91-3.91-1.02-7.15-2.36-9.7-4.02-2.55-1.66-4.68-3.98-6.38-6.96-1.79-2.98-2.68-6.51-2.68-10.59v-36.37c0-16.67,12.81-25.01,38.41-25.01,6.55,0,15.32.94,26.29,2.81v14.93c-9.87-2.38-18.55-3.57-26.04-3.57-3.15,0-5.6.08-7.34.25-1.74.17-3.55.6-5.42,1.28-4,1.36-6,4.38-6,9.06v35.22c0,7.49,6.85,11.23,20.55,11.23,5.87,0,14.12-1.23,24.76-3.7v15.06c-9.11,1.87-18.04,2.81-26.8,2.81-3.74,0-7.08-.17-10.02-.51Z"/><path class="cls-3" d="M2093.71,52.68h24.25l29.87,82.82h-20.17l-7.4-21.82h-30.25l-7.28,21.82h-19.65l30.62-82.82ZM2115.92,100.41l-10.47-31.14h-.51l-10.46,31.14h21.44Z"/><path class="cls-3" d="M2176.15,66.84h-25.52v-14.16h70.83v14.16h-25.4v68.66h-19.91v-68.66Z"/><path class="cls-3" d="M2232.94,52.68h19.91v82.82h-19.91V52.68Z"/><path class="cls-3" d="M2295.41,135.89c-3.87-.59-7.89-1.62-12.06-3.06-4.51-1.53-8.04-4.02-10.6-7.47-2.55-3.45-3.83-7.64-3.83-12.57v-36.24c0-4.08.91-7.74,2.74-10.97,1.83-3.23,4.19-5.79,7.08-7.66,2.55-1.62,5.7-2.98,9.44-4.08,3.74-1.11,7.23-1.79,10.46-2.04,2.98-.25,6.12-.38,9.44-.38,3.91,0,7.32.15,10.21.45,2.89.3,6.12.91,9.7,1.85,4.08,1.19,7.44,2.64,10.08,4.34,2.63,1.7,4.85,4.08,6.63,7.15,1.87,3.15,2.81,6.94,2.81,11.36v36.24c0,4.59-1.21,8.55-3.64,11.87-2.43,3.32-5.77,5.83-10.02,7.53-7.66,3.06-16.25,4.59-25.78,4.59-4.59,0-8.83-.3-12.7-.89ZM2315.45,122.29c1.92-.21,3.89-.62,5.94-1.21,2.04-.59,3.59-1.6,4.66-3,1.06-1.4,1.59-3.17,1.59-5.3v-36.37c0-3.91-1.58-6.7-4.72-8.36s-8.04-2.49-14.68-2.49-11.53.81-14.68,2.42c-3.15,1.62-4.72,4.42-4.72,8.42v36.37c0,2.13.56,3.89,1.66,5.3,1.11,1.4,2.72,2.4,4.85,3,2.04.6,4.02,1,5.94,1.21,1.92.21,4.28.32,7.08.32s5.17-.11,7.08-.32Z"/><path class="cls-3" d="M2363.63,52.68h20.16l40.07,56.54v-56.54h17.74v82.82h-20.16l-40.07-57.43v57.43h-17.74V52.68Z"/><path class="cls-3" d="M2456.91,134.48v-15.19c14.46,2.21,24.33,3.32,29.61,3.32,11.06,0,16.59-2.85,16.59-8.55v-5.36c0-2.72-.79-4.81-2.36-6.25-1.58-1.45-4.4-2.17-8.49-2.17h-9.7c-18.21,0-27.31-7.23-27.31-21.7v-6.13c0-7.23,3.02-12.55,9.06-15.95,6.04-3.4,15.61-5.1,28.71-5.1,6.81,0,15.44.55,25.91,1.66v14.8c-12.85-1.53-21.69-2.3-26.54-2.3-6.73,0-11.23.55-13.53,1.66-2.47,1.19-3.7,3.06-3.7,5.62v5.87c0,4.34,3.66,6.51,10.98,6.51h9.95c9.44,0,16.29,1.75,20.55,5.23,4.25,3.49,6.38,8.81,6.38,15.95v5.49c0,9.87-3.53,16.55-10.6,20.04-3.4,1.79-7.17,3.04-11.29,3.77-4.13.72-9.09,1.08-14.87,1.08-7.91,0-17.7-.77-29.35-2.3Z"/></svg>