<?xml version="1.0" encoding="UTF-8"?><svg id="Livello_1" xmlns="http://www.w3.org/2000/svg" viewBox="0 0 772 188.18"><defs><style>.cls-1{fill:#f6f6f6;}</style></defs><path class="cls-1" d="M451.1,57v76.3c0,14.2-2.8,25.3-8.4,33.1-5.6,7.8-14.8,13.3-27.5,16.5s-30.3,4.8-52.9,4.8h-88.6v-68.8l43.6-66.5v103.2h43c12.3,0,21.7-.5,27.9-1.6,6.3-1.1,10.8-3.1,13.6-6.2,2.8-3.1,4.2-7.9,4.2-14.5V56.1c0-8.9-3.5-15.1-10.5-18.7-6.6-3.4-16.9-5.1-30.8-5.3h-.8l-71.2.1-48.8,79.7v75.8h-45.1v-75.2l-48.8-80.7c-31.3.1-68.8.4-76.7.4-15.2,0,1.5.1-7.4.1-12.2,0-20.7,10-20.7,15.8v10.5c0,9.8,8.3,14.8,24.9,14.8h38.1c21.4,0,36.9,3.9,46.5,11.9,9.6,7.9,14.5,19.9,14.5,36.1v12.4c0,22.4-4.2,35.9-16.2,44.6-10.8,7.7-26.4,9.2-36.9,9.2-9.5,0-14.3.7-28,.5-16.5-.1-56.9.3-88-.1v-30c31.9,0,77.5.1,89.5.1,21.6,0,34.5.8,34.5-19.4v-12.1c0-6.2-1.8-10.9-5.4-14.2-3.6-3.3-10-4.9-19.2-4.9h-37.6C20.6,107.5,0,91.1,0,58.3v-13.9C0,28,6.8,16,20.5,8.3,34.2.6,34.8.3,64.5.3h66.4l-.1-.1h51.2l39.6,73.4L260.9.2h101.2c6.2,0,12,.1,17.5.4,13.9.7,25.4,2.2,34.6,4.6,12.7,3.4,22.1,9.2,28,17.5,5.9,8.2,8.9,19.6,8.9,34.3Z"/><polygon class="cls-1" points="573.8 150.1 573.8 187.7 463.7 187.7 463.7 123.1 501.5 123.1 501.5 150.1 573.8 150.1"/><path class="cls-1" d="M598.1,123.1l-23.9,64.5h44.5l21.6-64.5h-42.2ZM742.9,123.1h-44l21.6,64.5h45.7l-23.3-64.5ZM698.5,0h-54.9l-33.6,91h41.2l17.9-53.4h1.1l17.9,53.4h43.3L698.5,0Z"/><polygon class="cls-1" points="574.2 0 574.2 37.6 501.5 37.6 501.5 91 463.7 91 463.7 0 574.2 0"/><polygon class="cls-1" points="501.5 123.1 501.5 91 573.9 91 573.9 48.9 598.2 123.1 501.5 123.1"/><polygon class="cls-1" points="772 123.1 640.4 123.1 651.2 91 760.4 91 772 123.1"/></svg>