<?xml version="1.0" encoding="UTF-8"?><svg id="Livello_1" xmlns="http://www.w3.org/2000/svg" viewBox="0 0 758 262.26"><path d="M443,55.9v75c0,14-2.8,24.8-8.2,32.5-5.5,7.7-14.5,13.1-27,16.2s-29.8,4.7-52,4.7h-87v-67.5l42.8-65.3v101.4h42.2c12.1,0,21.3-.5,27.4-1.6,6.2-1,10.6-3.1,13.4-6.1,2.7-3,4.1-7.8,4.1-14.2V55.2c0-8.7-3.4-14.8-10.4-18.3-6.5-3.3-16.6-5-30.3-5.2h-.8l-69.9.1-47.9,78.3v74.4h-44.3v-73.8l-47.9-79.3c-30.7.1-67.6.4-75.3.4-14.9,0,1.5.1-7.3.1-12,0-20.3,9.8-20.3,15.5v10.3c0,9.6,8.1,14.5,24.4,14.5h37.5c21,0,36.2,3.9,45.7,11.6,9.5,7.8,14.2,19.6,14.2,35.5v12.2c0,22-4.1,35.3-15.9,43.8-10.6,7.6-26,9.1-36.2,9.1-9.3,0-14.1.7-27.5.5-16.2-.1-55.9.3-86.4-.1v-29.5c31.3,0,76.1.1,87.9.1,21.2,0,33.9.7,33.9-19.1v-11.9c0-6-1.8-10.7-5.3-13.9-3.5-3.2-9.8-4.8-18.9-4.8h-36.9C20.3,105.7,0,89.6,0,57.4v-13.6C0,27.7,6.7,15.9,20.2,8.3,33.6.7,34.2.4,63.4.4h65.2l-.1-.1h50.2l38.9,72.1L256.2.3h99.4c6.1,0,11.8.1,17.1.4,13.6.7,25,2.2,34,4.6,12.5,3.3,21.7,9,27.5,17.2,5.8,7.8,8.8,19,8.8,33.4Z" fill="#f7f7f7"/><polygon points="563.4 147.3 563.4 184.2 455.3 184.2 455.3 120.9 492.4 120.9 492.4 147.3 563.4 147.3" fill="#f7f7f7"/><path d="M587.2,120.9l-23.4,63.4h43.7l21.3-63.4h-41.6ZM729.5,120.9h-43.2l21.2,63.4h44.8l-22.8-63.4ZM685.9,0h-53.9l-33,89.3h40.5l17.6-52.4h1.1l17.6,52.4h42.5L685.9,0Z" fill="#f7f7f7"/><polygon points="563.8 0 563.8 36.9 492.4 36.9 492.4 89.4 455.3 89.4 455.3 0 563.8 0" fill="#f7f7f7"/><polygon points="492.4 120.9 492.4 89.3 563.5 89.4 563.5 48 587.3 120.9 492.4 120.9" fill="#fece2f"/><polygon points="758 120.9 628.8 120.9 639.4 89.4 746.6 89.4 758 120.9" fill="#fece2f"/><polygon points="581.59 217.54 581.59 262.26 626.35 262.26 608.06 239.9 626.35 217.54 581.59 217.54" fill="#f9b903"/><polygon points="176.41 217.54 176.41 262.26 131.65 262.26 149.94 239.9 131.65 217.54 176.41 217.54" fill="#f9b903"/><rect x="165.28" y="204.54" width="427.45" height="50.96" fill="#fece2f"/><path d="M187.55,221.48l-8.53,5.58v-3.55l8.57-5.93h3.72v28.1h-3.77v-24.2Z"/><path d="M212.08,245.99c-.79-.09-1.64-.26-2.53-.52-.95-.26-1.71-.64-2.27-1.15-.56-.5-1.03-1.22-1.41-2.14-.38-.87-.56-1.95-.56-3.25v-14.2c0-1.3.19-2.44.56-3.42s.87-1.76,1.47-2.34c.55-.49,1.28-.89,2.19-1.19.91-.3,1.83-.5,2.75-.58,1.04-.06,2.01-.09,2.9-.09,1.27,0,2.3.04,3.1.13.79.09,1.64.26,2.53.52.95.29,1.72.69,2.32,1.21.59.52,1.08,1.25,1.45,2.21.38.95.56,2.12.56,3.51v14.24c0,1.18-.19,2.24-.56,3.16-.38.92-.87,1.65-1.47,2.17-.58.49-1.31.89-2.21,1.19-.9.3-1.8.48-2.73.54-.81.09-1.8.13-2.99.13-1.27,0-2.3-.04-3.1-.13ZM218.81,243.24c.84-.22,1.44-.64,1.82-1.28.37-.63.56-1.57.56-2.81v-14.72c0-1.36-.19-2.37-.58-3.05-.39-.68-1-1.13-1.82-1.36s-2.01-.35-3.57-.35-2.79.12-3.62.35-1.42.69-1.8,1.36c-.38.68-.56,1.7-.56,3.05v14.72c0,1.24.19,2.18.58,2.81.39.64,1,1.06,1.84,1.28.84.22,2.04.33,3.59.33s2.71-.11,3.55-.33Z"/><path d="M264.53,217.58h4.85l10.91,28.1h-4.37l-3.2-8.53h-12.04l-3.16,8.53h-4.16l11.17-28.1ZM271.67,234.25l-4.76-12.69h-.39l-4.76,12.69h9.91Z"/><path d="M288.38,217.58h5.07l15.28,23.21v-23.21h3.68v28.1h-5.07l-15.28-23.6v23.6h-3.68v-28.1Z"/><path d="M323.5,217.58h5.07l15.28,23.21v-23.21h3.68v28.1h-5.07l-15.28-23.6v23.6h-3.68v-28.1Z"/><path d="M358.61,217.58h4.2v28.1h-4.2v-28.1Z"/><path d="M370.9,217.58h4.37l9.01,24.12h.39l9.01-24.12h4.16l-11.17,28.1h-4.85l-10.91-28.1Z"/><path d="M405.93,217.58h18.88v2.94h-14.68v9.18h13.25v2.94h-13.25v10.09h15.11v2.94h-19.31v-28.1Z"/><path d="M434.85,217.58h9.87c2.48,0,4.42.15,5.82.45,1.4.3,2.42.84,3.07,1.62s.97,1.92.97,3.42v4.85c0,1.67-.69,2.97-2.06,3.88-1.37.91-3.11,1.36-5.22,1.36l9.01,12.51h-5.15l-8.05-11.99h-4.07v11.99h-4.2v-28.1ZM444.55,230.92c2.08,0,3.57-.25,4.48-.76.91-.5,1.36-1.42,1.36-2.75v-3.9c0-2.11-1.82-3.16-5.46-3.16h-5.89v10.56h5.5Z"/><path d="M465.55,245.42v-3.51c3.35.72,6.29,1.08,8.83,1.08,2.14,0,3.69-.24,4.68-.71.98-.48,1.47-1.36,1.47-2.66v-3.64c0-1.21-.35-2.06-1.04-2.55-.69-.49-1.91-.74-3.64-.74h-3.29c-2.74,0-4.69-.55-5.85-1.65-1.15-1.1-1.73-2.8-1.73-5.11v-2.25c0-1.53.34-2.77,1.02-3.72.68-.95,1.82-1.66,3.42-2.12,1.6-.46,3.8-.69,6.6-.69,1.88,0,4.29.16,7.23.48v3.16c-3.29-.49-5.8-.74-7.53-.74-2.68,0-4.46.26-5.33.78-.9.55-1.34,1.46-1.34,2.73v3.2c0,.98.35,1.7,1.06,2.14.71.45,1.93.67,3.66.67h3.38c1.93,0,3.44.23,4.52.69,1.08.46,1.85,1.16,2.29,2.1.45.94.67,2.2.67,3.79v2.04c0,1.99-.37,3.57-1.1,4.72-.74,1.15-1.87,1.98-3.4,2.47-1.53.49-3.54.74-6.02.74s-5.25-.23-8.57-.69Z"/><path d="M502.65,217.58h4.85l10.91,28.1h-4.37l-3.2-8.53h-12.04l-3.16,8.53h-4.16l11.17-28.1ZM509.79,234.25l-4.76-12.69h-.39l-4.76,12.69h9.91Z"/><path d="M526.5,217.58h9.87c2.48,0,4.42.15,5.82.45,1.4.3,2.42.84,3.07,1.62s.97,1.92.97,3.42v4.85c0,1.67-.69,2.97-2.06,3.88-1.37.91-3.11,1.36-5.22,1.36l9.01,12.51h-5.15l-8.05-11.99h-4.07v11.99h-4.2v-28.1ZM536.2,230.92c2.08,0,3.57-.25,4.48-.76.91-.5,1.36-1.42,1.36-2.75v-3.9c0-2.11-1.82-3.16-5.46-3.16h-5.89v10.56h5.5Z"/><path d="M564.56,234.34l-10.17-16.75h4.81l7.49,13.21,7.49-13.21h4.81l-10.22,16.62v11.47h-4.2v-11.34Z"/><path d="M233.96,223.36c-.32-.12-.54-.33-.68-.62-.14-.29-.21-.71-.21-1.24v-3.85h-1.46v-.8h1.46v-2.03h1.23v2.03h2.34v.8h-2.34v3.91c0,.33.04.57.12.73.08.16.21.28.41.34.19.07.48.1.85.1.12,0,.44-.04.98-.11v.8c-.46.07-.92.11-1.37.11-.56,0-1-.06-1.31-.18Z"/><path d="M239.16,213.93h1.22v3.72c.13-.62.84-.93,2.15-.93.84,0,1.43.15,1.77.45.34.3.51.78.51,1.43v4.81h-1.22v-4.73c0-.17-.01-.31-.04-.42-.03-.11-.08-.22-.16-.33-.18-.23-.58-.34-1.21-.34-.5,0-.87.03-1.13.1-.26.07-.43.18-.53.33s-.14.37-.14.65v4.73h-1.22v-9.48Z"/></svg>