<?xml version="1.0" encoding="UTF-8"?><svg id="Livello_1" xmlns="http://www.w3.org/2000/svg" viewBox="0 0 332.02 672.59"><defs><style>.cls-1{fill:none;stroke:#ffcf32;stroke-miterlimit:10;stroke-width:5px;}</style></defs><path class="cls-1" d="M329.51,2.5v83.55H2.51V2.5h327Z"/><path class="cls-1" d="M329.52,197.94v-84.6H2.5v74.43h226.72L2.5,355.99v149.69c0,41.77,2.74,74.43,8.32,98.03,5.53,23.55,15.1,40.51,28.76,50.87,13.57,10.36,32.8,15.52,57.65,15.52h133.06c25.46,0,45.48-5.53,59.93-16.59,14.45-11.06,24.58-28.39,30.48-51.94,5.85-23.6,8.83-55.75,8.83-96.45v-138.96H106.33l11.66-8.83,211.53-159.4ZM273.58,504.56c0,28.57-3.11,49.39-9.34,62.44-6.22,13.01-17.05,19.56-32.47,19.56H97.23c-11.43,0-19.84-2.65-25.18-7.76-5.39-5.2-9.01-13.57-10.83-25.23-1.86-11.57-2.79-28.8-2.79-51.66v-61.05h215.15v63.69Z"/></svg>