<?xml version="1.0" encoding="UTF-8"?><svg id="Livello_1" xmlns="http://www.w3.org/2000/svg" viewBox="0 0 951.06 379.94"><defs><style>.cls-1{fill:#2a3277;}.cls-2{fill:#141414;}.cls-3{fill:#fff;}.cls-4{fill:#feca24;}</style></defs><path class="cls-2" d="M555.73,70.22v94c0,17.49-3.45,31.17-10.35,40.78-6.9,9.61-18.23,16.38-33.88,20.33-15.65,3.94-37.33,5.91-65.17,5.91h-109.15v-84.76l53.71-81.92v127.14h52.97c15.15,0,26.73-.62,34.37-1.97,7.76-1.36,13.3-3.82,16.75-7.64,3.45-3.82,5.17-9.73,5.17-17.86v-95.11c0-10.96-4.31-18.6-12.94-23.04-8.13-4.19-20.82-6.28-37.94-6.53h-.99l-87.71.12-60.12,98.19v93.38h-55.56v-92.64l-60.12-99.42c-38.56.12-84.76.49-94.49.49-18.73,0,1.85.12-9.12.12-15.03,0-25.5,12.32-25.5,19.46v12.94c0,12.07,10.23,18.23,30.68,18.23h46.94c26.36,0,45.46,4.8,57.29,14.66,11.83,9.73,17.86,24.52,17.86,44.47v15.28c0,27.6-5.17,44.23-19.96,54.94-13.3,9.49-32.52,11.33-45.46,11.33-11.7,0-17.62.86-34.49.62-20.33-.12-70.1.37-108.41-.12v-36.96c39.3,0,95.48.12,110.26.12,26.61,0,42.5.99,42.5-23.9v-14.91c0-7.64-2.22-13.43-6.65-17.49-4.43-4.07-12.32-6.04-23.65-6.04h-46.32C25.38,132.43,0,112.23,0,71.82v-17.12C0,34.49,8.38,19.71,25.25,10.23,42.13.74,42.87.37,79.46.37h81.8l-.12-.12h63.08l48.78,90.42L321.41.25h124.67c7.64,0,14.78.12,21.56.49,17.12.86,31.29,2.71,42.63,5.67,15.65,4.19,27.23,11.33,34.49,21.56,7.27,10.1,10.96,24.15,10.96,42.26Z"/><polygon class="cls-2" points="706.89 184.91 706.89 231.24 571.25 231.24 571.25 151.65 617.82 151.65 617.82 184.91 706.89 184.91"/><path class="cls-2" d="M736.82,151.65l-29.44,79.46h54.82l26.61-79.46h-51.99ZM915.21,151.65h-54.21l26.61,79.46h56.3l-28.7-79.46ZM860.51,0h-67.63l-41.39,112.11h50.76l22.05-65.79h1.36l22.05,65.79h53.34L860.51,0Z"/><polygon class="cls-2" points="707.38 0 707.38 46.32 617.82 46.32 617.82 112.11 571.25 112.11 571.25 0 707.38 0"/><polygon class="cls-4" points="617.82 151.65 617.82 112.11 707.01 112.11 707.01 60.24 736.95 151.65 617.82 151.65"/><polygon class="cls-4" points="951.06 151.65 788.93 151.65 802.24 112.11 936.77 112.11 951.06 151.65"/><rect class="cls-1" y="254.16" width="951.06" height="125.78"/><path class="cls-3" d="M150.6,280.23h17.43v60.12h35.65v12.41h-53.08v-72.53Z"/><path class="cls-3" d="M218.72,352.48c-2.5-.93-4.25-2.61-5.25-5.03-1.01-2.42-1.51-6.05-1.51-10.9,0-4.32.54-7.71,1.62-10.17,1.08-2.46,2.83-4.23,5.25-5.31,2.42-1.08,5.76-1.62,10-1.62h18.33v-3.69c0-2.31-.32-4.02-.95-5.14-.63-1.12-1.79-1.9-3.46-2.35-1.68-.45-4.19-.67-7.54-.67-4.62,0-10.95.45-19,1.34v-10.28c5.88-.74,12.78-1.12,20.67-1.12,6.93,0,12.27.52,16.04,1.56,3.76,1.04,6.46,2.83,8.1,5.36,1.64,2.53,2.46,6.22,2.46,11.06v37.21h-15.98v-4.92c-1.27,2.16-2.98,3.69-5.14,4.58-2.16.97-6.26,1.45-12.29,1.45-5.07,0-8.85-.47-11.34-1.4ZM243.47,343.37c1.04-.15,1.77-.37,2.18-.67.41-.3.76-.78,1.06-1.45.3-.52.45-1.3.45-2.35v-10.51h-11.18c-2.53,0-4.32.17-5.36.5-1.04.34-1.75,1.01-2.12,2.01-.37,1.01-.56,2.78-.56,5.31s.19,4.17.56,5.14c.37.97,1.1,1.6,2.18,1.9,1.08.3,3,.45,5.76.45,3.28,0,5.62-.11,7.04-.33Z"/><path class="cls-3" d="M297.89,353.54c-1.86-.22-3.73-.67-5.59-1.34-2.09-.67-3.78-1.6-5.08-2.79-1.3-1.19-2.37-2.83-3.19-4.92-.89-2.16-1.34-4.66-1.34-7.49v-28.27h-10.95v-10.06h10.95v-15.65h16.32v15.65h14.86v10.06h-14.86v25.48c0,2.61.22,4.56.67,5.87.45,1.3,1.3,2.24,2.57,2.79,1.27.56,3.2.84,5.81.84,1.04,0,2.98-.19,5.81-.56v10.17c-3.5.37-6.52.56-9.05.56-2.76,0-5.07-.11-6.93-.34Z"/><path class="cls-3" d="M321.7,336.33v-19.45c0-6.78,2.18-11.7,6.54-14.75,4.36-3.05,11.08-4.58,20.17-4.58,8.57,0,14.84,1.47,18.83,4.41,3.98,2.94,5.98,7.92,5.98,14.92v13.19h-35.09v4.92c0,3.13,1.12,5.36,3.35,6.71,2.24,1.34,6.26,2.01,12.07,2.01,5.36,0,11.4-.78,18.1-2.35v10.39c-6.63,1.41-13.71,2.12-21.23,2.12-19.15,0-28.72-5.85-28.72-17.55ZM357.68,320.8v-7.82c0-1.79-.73-3.13-2.18-4.02-1.45-.89-3.89-1.34-7.32-1.34-3.95,0-6.59.45-7.93,1.34-1.42.97-2.12,2.31-2.12,4.02v7.82h19.56Z"/><path class="cls-3" d="M384.62,352.2v-10.84c10.36,1.56,17.55,2.35,21.57,2.35,3.43,0,5.96-.33,7.6-1.01,1.64-.67,2.46-1.9,2.46-3.69v-3.35c0-1.86-.52-3.19-1.56-3.97-1.04-.78-3.09-1.17-6.15-1.17h-7.04c-5.74,0-10.17-1.14-13.3-3.41-3.13-2.27-4.69-5.61-4.69-10v-6.59c0-4.69,2.24-8.03,6.71-10,4.47-1.97,11.21-2.96,20.23-2.96,3.58,0,9.98.33,19.22,1.01v10.39c-11.62-.89-18.18-1.34-19.67-1.34-4.4,0-7.26.3-8.61.89-1.19.67-1.79,1.9-1.79,3.69v2.91c0,.97.48,1.81,1.45,2.51.97.71,2.38,1.06,4.25,1.06h7.15c13.26,0,19.89,4.32,19.89,12.96v6.82c0,2.61-.49,4.88-1.45,6.82-.97,1.94-2.23,3.46-3.8,4.58-1.49,1.04-3.41,1.86-5.76,2.46-2.35.59-4.79,1.01-7.32,1.23-2.31.22-4.99.34-8.05.34-5.81,0-12.93-.56-21.35-1.68Z"/><path class="cls-3" d="M464.52,353.54c-1.86-.22-3.73-.67-5.59-1.34-2.09-.67-3.78-1.6-5.08-2.79-1.3-1.19-2.37-2.83-3.19-4.92-.89-2.16-1.34-4.66-1.34-7.49v-28.27h-10.95v-10.06h10.95v-15.65h16.32v15.65h14.86v10.06h-14.86v25.48c0,2.61.22,4.56.67,5.87.45,1.3,1.3,2.24,2.57,2.79,1.27.56,3.2.84,5.81.84,1.04,0,2.98-.19,5.81-.56v10.17c-3.5.37-6.52.56-9.05.56-2.76,0-5.07-.11-6.93-.34Z"/><path class="cls-3" d="M516.26,280.23h17.66l35.09,49.51v-49.51h15.53v72.53h-17.66l-35.09-50.29v50.29h-15.53v-72.53Z"/><path class="cls-3" d="M597.96,336.33v-19.45c0-6.78,2.18-11.7,6.54-14.75,4.36-3.05,11.08-4.58,20.17-4.58,8.57,0,14.84,1.47,18.83,4.41,3.98,2.94,5.98,7.92,5.98,14.92v13.19h-35.09v4.92c0,3.13,1.12,5.36,3.35,6.71,2.23,1.34,6.26,2.01,12.07,2.01,5.36,0,11.4-.78,18.1-2.35v10.39c-6.63,1.41-13.71,2.12-21.23,2.12-19.15,0-28.72-5.85-28.72-17.55ZM633.94,320.8v-7.82c0-1.79-.73-3.13-2.18-4.02-1.45-.89-3.89-1.34-7.32-1.34-3.95,0-6.59.45-7.93,1.34-1.42.97-2.12,2.31-2.12,4.02v7.82h19.56Z"/><path class="cls-3" d="M655.73,298.67h16.65l10.06,39.23,10.73-39.23h15.98l11.18,39.23,9.61-39.23h15.87l-17.66,54.09h-16.54l-10.73-36.54-10.51,36.54h-16.54l-18.1-54.09Z"/><path class="cls-3" d="M752.73,352.2v-10.84c10.35,1.56,17.55,2.35,21.57,2.35,3.43,0,5.96-.33,7.6-1.01,1.64-.67,2.46-1.9,2.46-3.69v-3.35c0-1.86-.52-3.19-1.57-3.97-1.04-.78-3.09-1.17-6.15-1.17h-7.04c-5.74,0-10.17-1.14-13.3-3.41-3.13-2.27-4.69-5.61-4.69-10v-6.59c0-4.69,2.24-8.03,6.71-10,4.47-1.97,11.21-2.96,20.23-2.96,3.58,0,9.98.33,19.22,1.01v10.39c-11.62-.89-18.18-1.34-19.67-1.34-4.4,0-7.26.3-8.61.89-1.19.67-1.79,1.9-1.79,3.69v2.91c0,.97.48,1.81,1.45,2.51.97.71,2.38,1.06,4.25,1.06h7.15c13.26,0,19.89,4.32,19.89,12.96v6.82c0,2.61-.49,4.88-1.45,6.82-.97,1.94-2.24,3.46-3.8,4.58-1.49,1.04-3.41,1.86-5.76,2.46-2.35.59-4.79,1.01-7.32,1.23-2.31.22-4.99.34-8.05.34-5.81,0-12.93-.56-21.35-1.68Z"/></svg>