<?xml version="1.0" encoding="UTF-8"?><svg id="Livello_1" xmlns="http://www.w3.org/2000/svg" viewBox="0 0 772 250.6"><defs><style>.cls-1{fill:#f6f6f6;}.cls-2{fill:#feca21;}</style></defs><path class="cls-1" d="m119.7,249.8v-3.8c3.6.8,6.8,1.2,9.5,1.2,2.3,0,4-.3,5-.8,1.1-.5,1.6-1.5,1.6-2.9v-3.9c0-1.3-.4-2.2-1.1-2.8-.8-.5-2.1-.8-3.9-.8h-3.6c-3,0-5.1-.6-6.3-1.8-1.2-1.2-1.9-3-1.9-5.5v-2.4c0-1.7.4-3,1.1-4,.7-1,2-1.8,3.7-2.3s4.1-.7,7.1-.7c2,0,4.6.2,7.8.5v3.4c-3.6-.5-6.3-.8-8.1-.8-2.9,0-4.8.3-5.7.8-1,.6-1.4,1.6-1.4,2.9v3.5c0,1.1.4,1.8,1.1,2.3.8.5,2.1.7,3.9.7h3.6c2.1,0,3.7.2,4.9.7s2,1.3,2.5,2.3.7,2.4.7,4.1v2.2c0,2.1-.4,3.8-1.2,5.1-.8,1.2-2,2.1-3.7,2.7-1.7.5-3.8.8-6.5.8-2.4.1-5.5-.2-9.1-.7"/><polygon class="cls-1" points="160.6 237.9 149.6 219.8 154.8 219.8 162.9 234 171 219.8 176.1 219.8 165.1 237.7 165.1 250.1 160.6 250.1 160.6 237.9"/><path class="cls-1" d="m185.9,249.8v-3.8c3.6.8,6.8,1.2,9.5,1.2,2.3,0,4-.3,5-.8,1.1-.5,1.6-1.5,1.6-2.9v-3.9c0-1.3-.4-2.2-1.1-2.8s-2.1-.8-3.9-.8h-3.6c-3,0-5.1-.6-6.3-1.8-1.2-1.2-1.9-3-1.9-5.5v-2.4c0-1.7.4-3,1.1-4,.7-1,2-1.8,3.7-2.3s4.1-.7,7.1-.7c2,0,4.6.2,7.8.5v3.4c-3.6-.5-6.3-.8-8.1-.8-2.9,0-4.8.3-5.7.8-1,.6-1.5,1.6-1.5,2.9v3.5c0,1.1.4,1.8,1.1,2.3.8.5,2.1.7,3.9.7h3.6c2.1,0,3.7.2,4.9.7s2,1.3,2.5,2.3.7,2.4.7,4.1v2.2c0,2.1-.4,3.8-1.2,5.1-.8,1.2-2,2.1-3.7,2.7-1.7.5-3.8.8-6.5.8-2.4.1-5.5-.2-9-.7"/><polygon class="cls-1" points="226.4 223 216.1 223 216.1 219.8 241.2 219.8 241.2 223 231 223 231 250.1 226.4 250.1 226.4 223"/><polygon class="cls-1" points="250.4 219.8 270.8 219.8 270.8 223 254.9 223 254.9 232.9 269.2 232.9 269.2 236 254.9 236 254.9 246.9 271.2 246.9 271.2 250.1 250.4 250.1 250.4 219.8"/><polygon class="cls-1" points="281 219.8 287.8 219.8 297.5 245 297.6 245.1 306.8 219.8 313.4 219.8 313.4 250.1 309.4 250.1 309.4 224.4 309.2 224.4 299.4 250.1 295.3 250.1 285.3 224.4 285 224.4 285 250.1 281 250.1 281 219.8"/><rect class="cls-1" x="347.1" y="219.8" width="4.5" height="30.3"/><polygon class="cls-1" points="360.9 219.8 366.4 219.8 382.9 244.8 382.9 219.8 386.8 219.8 386.8 250.1 381.4 250.1 364.9 224.6 364.9 250.1 360.9 250.1 360.9 219.8"/><polygon class="cls-1" points="406.4 223 396.1 223 396.1 219.8 421.2 219.8 421.2 223 411 223 411 250.1 406.4 250.1 406.4 223"/><polygon class="cls-1" points="430.5 219.8 450.9 219.8 450.9 223 435.1 223 435.1 232.9 449.4 232.9 449.4 236 435.1 236 435.1 246.9 451.4 246.9 451.4 250.1 430.5 250.1 430.5 219.8"/><path class="cls-1" d="m470.8,250.4c-1.1-.1-2.3-.4-3.5-.7-1.4-.4-2.5-.8-3.5-1.4-.9-.6-1.7-1.4-2.3-2.4-.6-1.1-.9-2.2-.9-3.6v-14.3c0-1.7.5-3.2,1.4-4.5.9-1.2,2.2-2.2,3.7-2.7s3-.9,4.4-1.1,2.9-.3,4.5-.3c3.9,0,7.4.2,10.5.7v3.5c-1.2-.3-2.9-.5-5.1-.8-2.2-.2-4-.4-5.3-.4-6.4,0-9.6,1.8-9.6,5.5v14.4c0,1,.3,1.9.9,2.6s1.4,1.3,2.5,1.6c1,.4,2,.6,3,.8,1,.1,2.1.2,3.4.2,2.1,0,4.3-.3,6.7-.8v-10.6h-7.1v-3.2h11.3v16.3c-4.1.9-7.8,1.4-11.2,1.4-1.4,0-2.7-.1-3.8-.2"/><path class="cls-1" d="m497,219.8h10.7c2.7,0,4.8.2,6.3.5s2.6.9,3.3,1.8c.7.8,1.1,2.1,1.1,3.7v5.2c0,1.8-.7,3.2-2.2,4.2s-3.4,1.5-5.6,1.5l9.7,13.5h-5.6l-8.7-12.9h-4.4v12.9h-4.6v-30.4Zm10.5,14.4c2.2,0,3.9-.3,4.8-.8,1-.5,1.5-1.5,1.5-3v-4.2c0-2.3-2-3.4-5.9-3.4h-6.4v11.4h6Z"/><path class="cls-1" d="m539.6,219.8h5.2l11.8,30.3h-4.7l-3.5-9.2h-13l-3.4,9.2h-4.5l12.1-30.3Zm7.7,18l-5.1-13.7h-.4l-5.1,13.7h10.6Z"/><polygon class="cls-1" points="572.3 223 562 223 562 219.8 587.1 219.8 587.1 223 576.8 223 576.8 250.1 572.3 250.1 572.3 223"/><path class="cls-1" d="m596.4,242.3v-14.3c0-5.8,4.2-8.7,12.7-8.7s12.8,2.9,12.8,8.6v14.4c0,2.9-1.2,5-3.5,6.3-2.4,1.3-5.5,1.9-9.3,1.9-8.5.1-12.7-2.7-12.7-8.2m21.1,0v-14.4c0-3.7-2.8-5.6-8.4-5.6-2.7,0-4.8.4-6.2,1.3-1.4.8-2.2,2.3-2.2,4.3v14.4c0,3.5,2.8,5.2,8.5,5.2s8.3-1.7,8.3-5.2"/><path class="cls-1" d="m631.2,219.8h10.7c2.7,0,4.8.2,6.3.5s2.6.9,3.3,1.8c.7.8,1.1,2.1,1.1,3.7v5.2c0,1.8-.7,3.2-2.2,4.2s-3.4,1.5-5.6,1.5l9.7,13.5h-5.6l-8.7-12.9h-4.4v12.9h-4.5v-30.4h-.1Zm10.5,14.4c2.2,0,3.9-.3,4.8-.8,1-.5,1.5-1.5,1.5-3v-4.2c0-2.3-2-3.4-5.9-3.4h-6.4v11.4h6Z"/><path class="cls-1" d="m451.1,57v76.3c0,14.2-2.8,25.3-8.4,33.1-5.6,7.8-14.8,13.3-27.5,16.5s-30.3,4.8-52.9,4.8h-88.6v-68.8l43.6-66.5v103.2h43c12.3,0,21.7-.5,27.9-1.6,6.3-1.1,10.8-3.1,13.6-6.2,2.8-3.1,4.2-7.9,4.2-14.5V56.1c0-8.9-3.5-15.1-10.5-18.7-6.6-3.4-16.9-5.1-30.8-5.3h-.8l-71.2.1-48.8,79.7v75.8h-45.1v-75.2l-48.8-80.7c-31.3.1-68.8.4-76.7.4-15.2,0,1.5.1-7.4.1-12.2,0-20.7,10-20.7,15.8v10.5c0,9.8,8.3,14.8,24.9,14.8h38.1c21.4,0,36.9,3.9,46.5,11.9,9.6,7.9,14.5,19.9,14.5,36.1v12.4c0,22.4-4.2,35.9-16.2,44.6-10.8,7.7-26.4,9.2-36.9,9.2-9.5,0-14.3.7-28,.5-16.5-.1-56.9.3-88-.1v-30c31.9,0,77.5.1,89.5.1,21.6,0,34.5.8,34.5-19.4v-12.1c0-6.2-1.8-10.9-5.4-14.2-3.6-3.3-10-4.9-19.2-4.9h-37.6C20.6,107.5,0,91.1,0,58.3v-13.9C0,28,6.8,16,20.5,8.3,34.2.6,34.8.3,64.5.3h66.4l-.1-.1h51.2l39.6,73.4L260.9.2h101.2c6.2,0,12,.1,17.5.4,13.9.7,25.4,2.2,34.6,4.6,12.7,3.4,22.1,9.2,28,17.5,5.9,8.2,8.9,19.6,8.9,34.3Z"/><polygon class="cls-1" points="573.8 150.1 573.8 187.7 463.7 187.7 463.7 123.1 501.5 123.1 501.5 150.1 573.8 150.1"/><path class="cls-1" d="m598.1,123.1l-23.9,64.5h44.5l21.6-64.5h-42.2Zm144.8,0h-44l21.6,64.5h45.7l-23.3-64.5ZM698.5,0h-54.9l-33.6,91h41.2l17.9-53.4h1.1l17.9,53.4h43.3L698.5,0Z"/><polygon class="cls-1" points="574.2 0 574.2 37.6 501.5 37.6 501.5 91 463.7 91 463.7 0 574.2 0"/><polygon class="cls-2" points="501.5 123.1 501.5 91 573.9 91 573.9 48.9 598.2 123.1 501.5 123.1"/><polygon class="cls-2" points="772 123.1 640.4 123.1 651.2 91 760.4 91 772 123.1"/></svg>