<?xml version="1.0" encoding="UTF-8"?><svg id="Livello_1" xmlns="http://www.w3.org/2000/svg" viewBox="0 0 758 246"><defs><style>.cls-1{fill:#feca21;}.cls-2{fill:#0b0c0c;}</style></defs><path class="cls-2" d="m117.5,245.3v-3.7c3.5.8,6.7,1.1,9.4,1.1,2.3,0,3.9-.3,5-.8,1-.5,1.6-1.4,1.6-2.8v-3.9c0-1.3-.4-2.2-1.1-2.7-.7-.5-2-.8-3.9-.8h-3.5c-2.9,0-5-.6-6.2-1.7-1.2-1.2-1.8-3-1.8-5.4v-2.4c0-1.6.4-2.9,1.1-3.9.7-1,1.9-1.8,3.6-2.2,1.7-.5,4-.7,7-.7,2,0,4.5.2,7.7.5v3.3c-3.5-.5-6.1-.8-8-.8-2.8,0-4.7.3-5.6.8-.9.6-1.4,1.5-1.4,2.9v3.4c0,1,.4,1.8,1.1,2.3.7.5,2,.7,3.9.7h3.6c2,0,3.6.2,4.8.7,1.1.5,2,1.2,2.4,2.2.5,1,.7,2.3.7,4v2.2c0,2.1-.4,3.8-1.2,5s-2,2.1-3.6,2.6-3.7.8-6.4.8-5.6-.2-9.2-.7"/><polygon class="cls-2" points="157.7 233.5 146.9 215.8 152 215.8 159.9 229.8 167.9 215.8 173 215.8 162.1 233.4 162.1 245.5 157.7 245.5 157.7 233.5"/><path class="cls-2" d="m182.5,245.3v-3.7c3.5.8,6.7,1.1,9.4,1.1,2.3,0,3.9-.3,5-.8,1-.5,1.6-1.4,1.6-2.8v-3.9c0-1.3-.4-2.2-1.1-2.7s-2-.8-3.9-.8h-3.5c-2.9,0-5-.6-6.2-1.7-1.2-1.2-1.8-3-1.8-5.4v-2.4c0-1.6.4-2.9,1.1-3.9.7-1,1.9-1.8,3.6-2.2,1.7-.5,4-.7,7-.7,2,0,4.5.2,7.7.5v3.3c-3.5-.5-6.1-.8-8-.8-2.8,0-4.7.3-5.6.8-.9.6-1.4,1.5-1.4,2.9v3.4c0,1,.4,1.8,1.1,2.3.7.5,2,.7,3.9.7h3.6c2,0,3.6.2,4.8.7,1.1.5,2,1.2,2.4,2.2.5,1,.7,2.3.7,4v2.2c0,2.1-.4,3.8-1.2,5s-2,2.1-3.6,2.6-3.7.8-6.4.8-5.7-.2-9.2-.7"/><polygon class="cls-2" points="222.3 218.9 212.2 218.9 212.2 215.8 236.9 215.8 236.9 218.9 226.8 218.9 226.8 245.5 222.3 245.5 222.3 218.9"/><polygon class="cls-2" points="245.9 215.8 265.9 215.8 265.9 218.9 250.3 218.9 250.3 228.6 264.4 228.6 264.4 231.7 250.3 231.7 250.3 242.4 266.3 242.4 266.3 245.5 245.9 245.5 245.9 215.8"/><polygon class="cls-2" points="275.9 215.8 282.5 215.8 292.1 240.5 292.2 240.6 301.3 215.8 307.7 215.8 307.7 245.5 303.8 245.5 303.8 220.4 303.6 220.4 294 245.5 290 245.5 280.1 220.4 279.9 220.4 279.9 245.5 275.9 245.5 275.9 215.8"/><rect class="cls-2" x="340.8" y="215.8" width="4.4" height="29.8"/><polygon class="cls-2" points="354.4 215.8 359.7 215.8 375.9 240.4 375.9 215.8 379.8 215.8 379.8 245.5 374.4 245.5 358.3 220.5 358.3 245.5 354.4 245.5 354.4 215.8"/><polygon class="cls-2" points="399 218.9 388.9 218.9 388.9 215.8 413.6 215.8 413.6 218.9 403.5 218.9 403.5 245.5 399 245.5 399 218.9"/><polygon class="cls-2" points="422.7 215.8 442.7 215.8 442.7 218.9 427.2 218.9 427.2 228.6 441.2 228.6 441.2 231.7 427.2 231.7 427.2 242.4 443.2 242.4 443.2 245.5 422.7 245.5 422.7 215.8"/><path class="cls-2" d="m462.3,245.8c-1.1-.1-2.2-.4-3.4-.7-1.3-.4-2.5-.8-3.4-1.4s-1.7-1.3-2.2-2.3c-.6-1-.9-2.2-.9-3.5v-14.1c0-1.7.4-3.2,1.3-4.4.9-1.2,2.1-2.1,3.7-2.7,1.5-.5,2.9-.9,4.3-1.1s2.8-.3,4.4-.3c3.8,0,7.2.2,10.3.7v3.4c-1.2-.3-2.8-.5-5-.8-2.2-.2-3.9-.3-5.2-.3-6.3,0-9.4,1.8-9.4,5.4v14c0,1,.3,1.8.9,2.6.6.7,1.4,1.3,2.5,1.6,1,.4,2,.6,2.9.8,1,.1,2.1.2,3.3.2,2,0,4.2-.3,6.6-.8v-10.4h-7v-3.1h11v16c-4,.9-7.6,1.4-11,1.4-1.4,0-2.6-.1-3.7-.2"/><path class="cls-2" d="m488,215.8h10.5c2.6,0,4.7.2,6.2.5s2.6.9,3.3,1.7c.7.8,1,2,1,3.6v5.1c0,1.8-.7,3.1-2.2,4.1s-3.3,1.4-5.5,1.4l9.5,13.3h-5.5l-8.5-12.7h-4.3v12.7h-4.5v-29.7Zm10.3,14.1c2.2,0,3.8-.3,4.7-.8,1-.5,1.4-1.5,1.4-2.9v-4.2c0-2.2-1.9-3.3-5.8-3.3h-6.2v11.2h5.9Z"/><path class="cls-2" d="m529.8,215.8h5.1l11.6,29.8h-4.6l-3.4-9h-12.8l-3.4,9h-4.3l11.8-29.8Zm7.6,17.6l-5-13.4h-.4l-5,13.4h10.4Z"/><polygon class="cls-2" points="561.9 218.9 551.8 218.9 551.8 215.8 576.4 215.8 576.4 218.9 566.4 218.9 566.4 245.5 561.9 245.5 561.9 218.9"/><path class="cls-2" d="m585.6,237.9v-14.1c0-5.7,4.2-8.5,12.5-8.5s12.6,2.8,12.6,8.5v14.1c0,2.9-1.2,4.9-3.5,6.2-2.3,1.3-5.4,1.9-9.1,1.9-8.4,0-12.5-2.7-12.5-8.1m20.7,0v-14.2c0-3.7-2.8-5.5-8.3-5.5-2.7,0-4.7.4-6.1,1.2-1.4.8-2.1,2.3-2.1,4.3v14.2c0,3.4,2.8,5.1,8.3,5.1s8.2-1.7,8.2-5.1"/><path class="cls-2" d="m619.8,215.8h10.5c2.6,0,4.7.2,6.2.5s2.6.9,3.3,1.7c.7.8,1,2,1,3.6v5.1c0,1.8-.7,3.1-2.2,4.1s-3.3,1.4-5.5,1.4l9.5,13.3h-5.5l-8.5-12.7h-4.3v12.7h-4.4l-.1-29.7h0Zm10.3,14.1c2.2,0,3.8-.3,4.7-.8,1-.5,1.4-1.5,1.4-2.9v-4.2c0-2.2-1.9-3.3-5.8-3.3h-6.2v11.2h5.9Z"/><path class="cls-2" d="m443,55.9v75c0,14-2.8,24.8-8.2,32.5-5.5,7.7-14.5,13.1-27,16.2s-29.8,4.7-52,4.7h-87v-67.5l42.8-65.3v101.4h42.2c12.1,0,21.3-.5,27.4-1.6,6.2-1,10.6-3.1,13.4-6.1,2.7-3,4.1-7.8,4.1-14.2V55.2c0-8.7-3.4-14.8-10.4-18.3-6.5-3.3-16.6-5-30.3-5.2h-.8l-69.9.1-47.9,78.3v74.4h-44.3v-73.8l-47.9-79.3c-30.7.1-67.6.4-75.3.4-14.9,0,1.5.1-7.3.1-12,0-20.3,9.8-20.3,15.5v10.3c0,9.6,8.1,14.5,24.4,14.5h37.5c21,0,36.2,3.9,45.7,11.6,9.5,7.8,14.2,19.6,14.2,35.5v12.2c0,22-4.1,35.3-15.9,43.8-10.6,7.6-26,9.1-36.2,9.1-9.3,0-14.1.7-27.5.5-16.2-.1-55.9.3-86.4-.1v-29.5c31.3,0,76.1.1,87.9.1,21.2,0,33.9.7,33.9-19.1v-11.9c0-6-1.8-10.7-5.3-13.9-3.5-3.2-9.8-4.8-18.9-4.8h-36.9C20.3,105.7,0,89.6,0,57.4v-13.6C0,27.7,6.7,15.9,20.2,8.3,33.6.7,34.2.4,63.4.4h65.2l-.1-.1h50.2l38.9,72.1L256.2.3h99.4c6.1,0,11.8.1,17.1.4,13.6.7,25,2.2,34,4.6,12.5,3.3,21.7,9,27.5,17.2,5.8,7.8,8.8,19,8.8,33.4Z"/><polygon class="cls-2" points="563.4 147.3 563.4 184.2 455.3 184.2 455.3 120.9 492.4 120.9 492.4 147.3 563.4 147.3"/><path class="cls-2" d="m587.2,120.9l-23.4,63.4h43.7l21.3-63.4h-41.6Zm142.3,0h-43.2l21.2,63.4h44.8l-22.8-63.4ZM685.9,0h-53.9l-33,89.3h40.5l17.6-52.4h1.1l17.6,52.4h42.5L685.9,0Z"/><polygon class="cls-2" points="563.8 0 563.8 36.9 492.4 36.9 492.4 89.4 455.3 89.4 455.3 0 563.8 0"/><polygon class="cls-1" points="492.4 120.9 492.4 89.3 563.5 89.4 563.5 48 587.3 120.9 492.4 120.9"/><polygon class="cls-1" points="758 120.9 628.8 120.9 639.4 89.4 746.6 89.4 758 120.9"/><path class="cls-2" d="m117.5,245.3v-3.7c3.5.8,6.7,1.1,9.4,1.1,2.3,0,3.9-.3,5-.8,1-.5,1.6-1.4,1.6-2.8v-3.9c0-1.3-.4-2.2-1.1-2.7-.7-.5-2-.8-3.9-.8h-3.5c-2.9,0-5-.6-6.2-1.7-1.2-1.2-1.8-3-1.8-5.4v-2.4c0-1.6.4-2.9,1.1-3.9.7-1,1.9-1.8,3.6-2.2,1.7-.5,4-.7,7-.7,2,0,4.5.2,7.7.5v3.3c-3.5-.5-6.1-.8-8-.8-2.8,0-4.7.3-5.6.8-.9.6-1.4,1.5-1.4,2.9v3.4c0,1,.4,1.8,1.1,2.3.7.5,2,.7,3.9.7h3.6c2,0,3.6.2,4.8.7,1.1.5,2,1.2,2.4,2.2.5,1,.7,2.3.7,4v2.2c0,2.1-.4,3.8-1.2,5s-2,2.1-3.6,2.6-3.7.8-6.4.8-5.6-.2-9.2-.7"/><polygon class="cls-2" points="157.7 233.5 146.9 215.8 152 215.8 159.9 229.8 167.9 215.8 173 215.8 162.1 233.4 162.1 245.5 157.7 245.5 157.7 233.5"/><path class="cls-2" d="m182.5,245.3v-3.7c3.5.8,6.7,1.1,9.4,1.1,2.3,0,3.9-.3,5-.8,1-.5,1.6-1.4,1.6-2.8v-3.9c0-1.3-.4-2.2-1.1-2.7s-2-.8-3.9-.8h-3.5c-2.9,0-5-.6-6.2-1.7-1.2-1.2-1.8-3-1.8-5.4v-2.4c0-1.6.4-2.9,1.1-3.9.7-1,1.9-1.8,3.6-2.2,1.7-.5,4-.7,7-.7,2,0,4.5.2,7.7.5v3.3c-3.5-.5-6.1-.8-8-.8-2.8,0-4.7.3-5.6.8-.9.6-1.4,1.5-1.4,2.9v3.4c0,1,.4,1.8,1.1,2.3.7.5,2,.7,3.9.7h3.6c2,0,3.6.2,4.8.7,1.1.5,2,1.2,2.4,2.2.5,1,.7,2.3.7,4v2.2c0,2.1-.4,3.8-1.2,5s-2,2.1-3.6,2.6-3.7.8-6.4.8-5.7-.2-9.2-.7"/><polygon class="cls-2" points="222.3 218.9 212.2 218.9 212.2 215.8 236.9 215.8 236.9 218.9 226.8 218.9 226.8 245.5 222.3 245.5 222.3 218.9"/><polygon class="cls-2" points="245.9 215.8 265.9 215.8 265.9 218.9 250.3 218.9 250.3 228.6 264.4 228.6 264.4 231.7 250.3 231.7 250.3 242.4 266.3 242.4 266.3 245.5 245.9 245.5 245.9 215.8"/><polygon class="cls-2" points="275.9 215.8 282.5 215.8 292.1 240.5 292.2 240.6 301.3 215.8 307.7 215.8 307.7 245.5 303.8 245.5 303.8 220.4 303.6 220.4 294 245.5 290 245.5 280.1 220.4 279.9 220.4 279.9 245.5 275.9 245.5 275.9 215.8"/><rect class="cls-2" x="340.8" y="215.8" width="4.4" height="29.8"/><polygon class="cls-2" points="354.4 215.8 359.7 215.8 375.9 240.4 375.9 215.8 379.8 215.8 379.8 245.5 374.4 245.5 358.3 220.5 358.3 245.5 354.4 245.5 354.4 215.8"/><polygon class="cls-2" points="399 218.9 388.9 218.9 388.9 215.8 413.6 215.8 413.6 218.9 403.5 218.9 403.5 245.5 399 245.5 399 218.9"/><polygon class="cls-2" points="422.7 215.8 442.7 215.8 442.7 218.9 427.2 218.9 427.2 228.6 441.2 228.6 441.2 231.7 427.2 231.7 427.2 242.4 443.2 242.4 443.2 245.5 422.7 245.5 422.7 215.8"/><path class="cls-2" d="m462.3,245.8c-1.1-.1-2.2-.4-3.4-.7-1.3-.4-2.5-.8-3.4-1.4s-1.7-1.3-2.2-2.3c-.6-1-.9-2.2-.9-3.5v-14.1c0-1.7.4-3.2,1.3-4.4.9-1.2,2.1-2.1,3.7-2.7,1.5-.5,2.9-.9,4.3-1.1s2.8-.3,4.4-.3c3.8,0,7.2.2,10.3.7v3.4c-1.2-.3-2.8-.5-5-.8-2.2-.2-3.9-.3-5.2-.3-6.3,0-9.4,1.8-9.4,5.4v14c0,1,.3,1.8.9,2.6.6.7,1.4,1.3,2.5,1.6,1,.4,2,.6,2.9.8,1,.1,2.1.2,3.3.2,2,0,4.2-.3,6.6-.8v-10.4h-7v-3.1h11v16c-4,.9-7.6,1.4-11,1.4-1.4,0-2.6-.1-3.7-.2"/><path class="cls-2" d="m488,215.8h10.5c2.6,0,4.7.2,6.2.5s2.6.9,3.3,1.7c.7.8,1,2,1,3.6v5.1c0,1.8-.7,3.1-2.2,4.1s-3.3,1.4-5.5,1.4l9.5,13.3h-5.5l-8.5-12.7h-4.3v12.7h-4.5v-29.7Zm10.3,14.1c2.2,0,3.8-.3,4.7-.8,1-.5,1.4-1.5,1.4-2.9v-4.2c0-2.2-1.9-3.3-5.8-3.3h-6.2v11.2h5.9Z"/><path class="cls-2" d="m529.8,215.8h5.1l11.6,29.8h-4.6l-3.4-9h-12.8l-3.4,9h-4.3l11.8-29.8Zm7.6,17.6l-5-13.4h-.4l-5,13.4h10.4Z"/><polygon class="cls-2" points="561.9 218.9 551.8 218.9 551.8 215.8 576.4 215.8 576.4 218.9 566.4 218.9 566.4 245.5 561.9 245.5 561.9 218.9"/><path class="cls-2" d="m585.6,237.9v-14.1c0-5.7,4.2-8.5,12.5-8.5s12.6,2.8,12.6,8.5v14.1c0,2.9-1.2,4.9-3.5,6.2-2.3,1.3-5.4,1.9-9.1,1.9-8.4,0-12.5-2.7-12.5-8.1m20.7,0v-14.2c0-3.7-2.8-5.5-8.3-5.5-2.7,0-4.7.4-6.1,1.2-1.4.8-2.1,2.3-2.1,4.3v14.2c0,3.4,2.8,5.1,8.3,5.1s8.2-1.7,8.2-5.1"/><path class="cls-2" d="m619.8,215.8h10.5c2.6,0,4.7.2,6.2.5s2.6.9,3.3,1.7c.7.8,1,2,1,3.6v5.1c0,1.8-.7,3.1-2.2,4.1s-3.3,1.4-5.5,1.4l9.5,13.3h-5.5l-8.5-12.7h-4.3v12.7h-4.4l-.1-29.7h0Zm10.3,14.1c2.2,0,3.8-.3,4.7-.8,1-.5,1.4-1.5,1.4-2.9v-4.2c0-2.2-1.9-3.3-5.8-3.3h-6.2v11.2h5.9Z"/><polygon class="cls-2" points="563.4 147.3 563.4 184.2 455.3 184.2 455.3 120.9 492.4 120.9 492.4 147.3 563.4 147.3"/><path class="cls-2" d="m587.2,120.9l-23.4,63.4h43.7l21.3-63.4h-41.6Zm142.3,0h-43.2l21.2,63.4h44.8l-22.8-63.4ZM685.9,0h-53.9l-33,89.3h40.5l17.6-52.4h1.1l17.6,52.4h42.5L685.9,0Z"/><polygon class="cls-2" points="563.8 0 563.8 36.9 492.4 36.9 492.4 89.4 455.3 89.4 455.3 0 563.8 0"/><polygon class="cls-1" points="492.4 120.9 492.4 89.3 563.5 89.4 563.5 48 587.3 120.9 492.4 120.9"/><polygon class="cls-1" points="758 120.9 628.8 120.9 639.4 89.4 746.6 89.4 758 120.9"/></svg>