<?xml version="1.0" encoding="UTF-8"?><svg id="Livello_1" xmlns="http://www.w3.org/2000/svg" viewBox="0 0 46 46"><defs><style>.cls-1{fill:#fff;}.cls-2{fill:#3561ab;}</style></defs><circle class="cls-2" cx="23" cy="23" r="23"/><path class="cls-1" d="M25.63,6.53c-.86-.14-1.73-.21-2.63-.21-9.21,0-16.68,7.47-16.68,16.68s7.47,16.68,16.68,16.68,16.68-7.47,16.68-16.68c0-6.63-3.87-12.36-9.48-15.05v6.95c2.23,1.99,3.64,4.88,3.64,8.1,0,5.08-3.49,9.34-8.21,10.52V6.53ZM12.16,23c0-5.2,3.66-9.54,8.54-10.59v21.19c-4.88-1.05-8.54-5.4-8.54-10.59Z"/></svg>